<?xml version="1.0" encoding="UTF-8" standalone="no"?>
<!DOCTYPE svg PUBLIC "-//W3C//DTD SVG 1.1//EN" "http://www.w3.org/Graphics/SVG/1.1/DTD/svg11.dtd">
<svg width="100%" height="100%" viewBox="0 0 4725 4725" version="1.1" xmlns="http://www.w3.org/2000/svg" xmlns:xlink="http://www.w3.org/1999/xlink" xml:space="preserve" xmlns:serif="http://www.serif.com/" style="fill-rule:evenodd;clip-rule:evenodd;stroke-linecap:round;stroke-linejoin:round;stroke-miterlimit:1.5;">
    <g transform="matrix(0.821559,0,0,0.985497,374.396,22.1455)">
        <rect x="-455.714" y="-22.471" width="5750.54" height="4793.94" style="fill:white;"/>
    </g>
    <g transform="matrix(2.21436,0,0,2.22741,-5326.49,-5244.19)">
        <ellipse cx="3472.21" cy="3414.91" rx="1066.77" ry="1060.52" style="fill:white;"/>
    </g>
    <g id="logo_frauenk.svg" transform="matrix(11.9179,0,0,11.9179,2362.2,2099.15)">
        <g transform="matrix(1,0,0,1,-106.299,-177.165)">
            <g id="g4435" transform="matrix(0.994824,0,0,0.99958,-0.280402,1.67069)">
                <g id="g3966">
                    <path id="path3874" d="M105.75,18.3C106.048,19.323 105.15,18.957 104.329,18.957L104.329,23.584L106.135,23.584L106.135,26.665C104.92,26.625 104.257,26.949 104.305,29.1C104.352,31.252 104.7,33.762 104.136,34.945L103.269,34.945L103.269,39.547L101.342,41.641C100.283,42.797 99.478,44.23 99.416,44.807L99.416,45.854L100.186,45.854C100.253,45.854 100.321,45.875 100.379,45.878L100.403,46.049L100.499,46.999C90.464,53.535 92.869,55.862 93.326,59.002C93.628,61.61 92.187,62.444 90.587,63.078L90.481,64.264L90.962,65.481L89.421,65.895C87.578,66.382 87,67.166 88.56,68.744L89.716,69.913L89.716,99.037C89.543,99.311 89.361,99.579 89.211,99.865C88.863,100.071 88.175,100.498 88.175,100.498L88.175,106.513L88.055,114.549C88.055,158.401 80.507,185.406 60.283,185.406L60.37,195.526C58.616,196.079 58.89,197.607 58.89,198.44L58.771,204.82C58.771,232.911 53.48,237.548 21.922,237.548L18.045,237.548L18.045,243.782L14.192,243.782L14.192,252.427C14.192,252.427 16.656,254.723 17.876,255.885L17.852,261.656L17.756,264.627L17.78,285.812L17.684,311.016L17.539,319.929L17.539,334.954L15.599,335.733L15.599,340.798L96.219,340.871L96.219,340.895L108.621,340.895C108.621,172.281 107.289,91.441 107.289,18.3L105.749,18.3L105.75,18.3ZM98.769,72.397C100.985,72.397 102.237,73.768 102.237,75.879C102.253,84.048 102.237,100.401 102.237,100.401L95.325,100.401L95.325,75.904C95.325,73.845 96.553,72.397 98.769,72.397Z" style="fill:rgb(220,0,103);fill-rule:nonzero;"/>
                    <rect id="rect3764" x="60.348" y="164.6" width="23.688" height="21.996" style="fill:rgb(220,0,103);"/>
                    <rect id="rect3768" x="59.622" y="163.5" width="16.87" height="2.353" style="fill:rgb(220,0,103);"/>
                    <path id="path3770" d="M97.469,116.162C82.474,121.107 63.969,143.281 62.693,161.945C61.417,180.609 95.076,175.345 95.076,175.345L97.469,116.162Z" style="fill:rgb(220,0,103);fill-rule:nonzero;"/>
                    <rect id="rect3772" x="67.342" y="137.697" width="11.844" height="10.49" style="fill:rgb(220,0,103);"/>
                    <rect id="rect3774" x="65.706" y="136.513" width="13.536" height="3.61" style="fill:rgb(220,0,103);"/>
                    <g id="g3905" transform="matrix(1,0,0,1,-0.225601,0)">
                        <rect id="rect3780" x="23.546" y="223.2" width="14.326" height="18.838" style="fill:rgb(220,0,103);"/>
                        <rect id="rect3782" x="21.911" y="221.452" width="16.018" height="7.106" style="fill:rgb(220,0,103);"/>
                        <rect id="rect3788" x="29.074" y="205.942" width="10.378" height="18.838" style="fill:rgb(220,0,103);"/>
                        <path id="rect3790" d="M27.156,200.302L38.875,198.786L38.436,206.844L27.156,206.844L27.156,200.302Z" style="fill:rgb(220,0,103);fill-rule:nonzero;"/>
                        <g id="path3801" transform="matrix(1.0315,0,0,0.835966,-38.633,82.7597)">
                            <path d="M70.275,133.693C70.275,134.223 69.631,134.652 68.836,134.652C68.042,134.652 67.398,134.223 67.398,133.693C67.398,133.164 68.042,132.734 68.836,132.734C69.631,132.734 70.275,133.164 70.275,133.693Z" style="fill:rgb(220,0,103);fill-rule:nonzero;"/>
                        </g>
                        <path id="path3803" d="M30.708,200.071C32.702,195.844 32.044,194.528 32.044,194.528C32.044,194.528 31.925,193.732 31.925,193.232C30.668,193.19 30.449,190.739 30.449,188.805L29.671,188.845L29.691,186.91C33.97,186.91 33.979,181.993 33.979,181.088L37.696,181.207C37.696,181.207 37.757,201.507 37.018,201.547C36.279,201.587 30.708,200.071 30.708,200.071L30.708,200.071Z" style="fill:rgb(220,0,103);fill-rule:nonzero;"/>
                        <rect id="rect3805" x="33.409" y="180.053" width="4.116" height="2.37" style="fill:rgb(220,0,103);"/>
                        <rect id="rect3807" x="34.247" y="179.096" width="3.219" height="1.054" style="fill:rgb(220,0,103);"/>
                        <rect id="rect3809" x="34.885" y="177.102" width="2.421" height="4.005" style="fill:rgb(220,0,103);"/>
                    </g>
                    <g id="g3926" transform="matrix(-1,0,0,1,73.67,0)">
                        <rect id="rect3928" x="23.546" y="223.2" width="14.326" height="18.838" style="fill:rgb(220,0,103);"/>
                        <rect id="rect3930" x="21.911" y="221.452" width="16.018" height="7.106" style="fill:rgb(220,0,103);"/>
                        <rect id="rect3936" x="29.074" y="205.942" width="10.378" height="18.838" style="fill:rgb(220,0,103);"/>
                        <path id="path3938" d="M27.156,200.302L38.875,198.786L38.436,206.844L27.156,206.844L27.156,200.302Z" style="fill:rgb(220,0,103);fill-rule:nonzero;"/>
                        <g id="path3946" transform="matrix(1.0315,0,0,0.835966,-38.633,82.7597)">
                            <path d="M70.275,133.693C70.275,134.223 69.631,134.652 68.836,134.652C68.042,134.652 67.398,134.223 67.398,133.693C67.398,133.164 68.042,132.734 68.836,132.734C69.631,132.734 70.275,133.164 70.275,133.693Z" style="fill:rgb(220,0,103);fill-rule:nonzero;"/>
                        </g>
                        <path id="path3948" d="M30.708,200.071C32.702,195.844 32.044,194.528 32.044,194.528C32.044,194.528 31.925,193.732 31.925,193.232C30.668,193.19 30.449,190.739 30.449,188.805L29.671,188.845L29.691,186.91C33.97,186.91 33.979,181.993 33.979,181.088L37.696,181.207C37.696,181.207 37.757,201.507 37.018,201.547C36.279,201.587 30.708,200.071 30.708,200.071L30.708,200.071Z" style="fill:rgb(220,0,103);fill-rule:nonzero;"/>
                        <rect id="rect3950" x="33.409" y="180.053" width="4.116" height="2.37" style="fill:rgb(220,0,103);"/>
                        <rect id="rect3952" x="34.247" y="179.096" width="3.219" height="1.054" style="fill:rgb(220,0,103);"/>
                        <rect id="rect3954" x="34.885" y="177.102" width="2.421" height="4.005" style="fill:rgb(220,0,103);"/>
                    </g>
                </g>
                <g id="g39661" serif:id="g3966" transform="matrix(-1,0,0,1,213.474,0)">
                    <path id="path38741" serif:id="path3874" d="M105.75,18.3C106.048,19.323 105.15,18.957 104.329,18.957L104.329,23.584L106.135,23.584L106.135,26.665C104.92,26.625 104.257,26.949 104.305,29.1C104.352,31.252 104.7,33.762 104.136,34.945L103.269,34.945L103.269,39.547L101.342,41.641C100.283,42.797 99.478,44.23 99.416,44.807L99.416,45.854L100.186,45.854C100.253,45.854 100.321,45.875 100.379,45.878L100.403,46.049L100.499,46.999C90.464,53.535 92.869,55.862 93.326,59.002C93.628,61.61 92.187,62.444 90.587,63.078L90.481,64.264L90.962,65.481L89.421,65.895C87.578,66.382 87,67.166 88.56,68.744L89.716,69.913L89.716,99.037C89.543,99.311 89.361,99.579 89.211,99.865C88.863,100.071 88.175,100.498 88.175,100.498L88.175,106.513L88.055,114.549C88.055,158.401 80.507,185.406 60.283,185.406L60.37,195.526C58.616,196.079 58.89,197.607 58.89,198.44L58.771,204.82C58.771,232.911 53.48,237.548 21.922,237.548L18.045,237.548L18.045,243.782L14.192,243.782L14.192,252.427C14.192,252.427 16.656,254.723 17.876,255.885L17.852,261.656L17.756,264.627L17.78,285.812L17.684,311.016L17.539,319.929L17.539,334.954L15.599,335.733L15.599,340.798L96.219,340.871L96.219,340.895L108.621,340.895C108.621,172.281 107.289,91.441 107.289,18.3L105.749,18.3L105.75,18.3ZM98.769,72.397C100.985,72.397 102.237,73.768 102.237,75.879C102.253,84.048 102.237,100.401 102.237,100.401L95.325,100.401L95.325,75.904C95.325,73.845 96.553,72.397 98.769,72.397Z" style="fill:rgb(220,0,103);fill-rule:nonzero;"/>
                    <rect id="rect37641" serif:id="rect3764" x="60.348" y="164.6" width="23.688" height="21.996" style="fill:rgb(220,0,103);"/>
                    <rect id="rect37681" serif:id="rect3768" x="59.622" y="163.5" width="16.87" height="2.353" style="fill:rgb(220,0,103);"/>
                    <path id="path37701" serif:id="path3770" d="M97.469,116.162C82.474,121.107 63.969,143.281 62.693,161.945C61.417,180.609 95.076,175.345 95.076,175.345L97.469,116.162Z" style="fill:rgb(220,0,103);fill-rule:nonzero;"/>
                    <rect id="rect37721" serif:id="rect3772" x="67.342" y="137.697" width="11.844" height="10.49" style="fill:rgb(220,0,103);"/>
                    <rect id="rect37741" serif:id="rect3774" x="65.706" y="136.513" width="13.536" height="3.61" style="fill:rgb(220,0,103);"/>
                    <g id="g39051" serif:id="g3905" transform="matrix(1,0,0,1,-0.225601,0)">
                        <rect id="rect37801" serif:id="rect3780" x="23.546" y="223.2" width="14.326" height="18.838" style="fill:rgb(220,0,103);"/>
                        <rect id="rect37821" serif:id="rect3782" x="21.911" y="221.452" width="16.018" height="7.106" style="fill:rgb(220,0,103);"/>
                        <rect id="rect37881" serif:id="rect3788" x="29.074" y="205.942" width="10.378" height="18.838" style="fill:rgb(220,0,103);"/>
                        <path id="rect37901" serif:id="rect3790" d="M27.156,200.302L38.875,198.786L38.436,206.844L27.156,206.844L27.156,200.302Z" style="fill:rgb(220,0,103);fill-rule:nonzero;"/>
                        <g id="path38011" serif:id="path3801" transform="matrix(1.0315,0,0,0.835966,-38.633,82.7597)">
                            <path d="M70.275,133.693C70.275,134.223 69.631,134.652 68.836,134.652C68.042,134.652 67.398,134.223 67.398,133.693C67.398,133.164 68.042,132.734 68.836,132.734C69.631,132.734 70.275,133.164 70.275,133.693Z" style="fill:rgb(220,0,103);fill-rule:nonzero;"/>
                        </g>
                        <path id="path38031" serif:id="path3803" d="M30.708,200.071C32.702,195.844 32.044,194.528 32.044,194.528C32.044,194.528 31.925,193.732 31.925,193.232C30.668,193.19 30.449,190.739 30.449,188.805L29.671,188.845L29.691,186.91C33.97,186.91 33.979,181.993 33.979,181.088L37.696,181.207C37.696,181.207 37.757,201.507 37.018,201.547C36.279,201.587 30.708,200.071 30.708,200.071L30.708,200.071Z" style="fill:rgb(220,0,103);fill-rule:nonzero;"/>
                        <rect id="rect38051" serif:id="rect3805" x="33.409" y="180.053" width="4.116" height="2.37" style="fill:rgb(220,0,103);"/>
                        <rect id="rect38071" serif:id="rect3807" x="34.247" y="179.096" width="3.219" height="1.054" style="fill:rgb(220,0,103);"/>
                        <rect id="rect38091" serif:id="rect3809" x="34.885" y="177.102" width="2.421" height="4.005" style="fill:rgb(220,0,103);"/>
                    </g>
                    <g id="g39261" serif:id="g3926" transform="matrix(-1,0,0,1,73.67,0)">
                        <rect id="rect39281" serif:id="rect3928" x="23.546" y="223.2" width="14.326" height="18.838" style="fill:rgb(220,0,103);"/>
                        <rect id="rect39301" serif:id="rect3930" x="21.911" y="221.452" width="16.018" height="7.106" style="fill:rgb(220,0,103);"/>
                        <rect id="rect39361" serif:id="rect3936" x="29.074" y="205.942" width="10.378" height="18.838" style="fill:rgb(220,0,103);"/>
                        <path id="path39381" serif:id="path3938" d="M27.156,200.302L38.875,198.786L38.436,206.844L27.156,206.844L27.156,200.302Z" style="fill:rgb(220,0,103);fill-rule:nonzero;"/>
                        <g id="path39461" serif:id="path3946" transform="matrix(1.0315,0,0,0.835966,-38.633,82.7597)">
                            <path d="M70.275,133.693C70.275,134.223 69.631,134.652 68.836,134.652C68.042,134.652 67.398,134.223 67.398,133.693C67.398,133.164 68.042,132.734 68.836,132.734C69.631,132.734 70.275,133.164 70.275,133.693Z" style="fill:rgb(220,0,103);fill-rule:nonzero;"/>
                        </g>
                        <path id="path39481" serif:id="path3948" d="M30.708,200.071C32.702,195.844 32.044,194.528 32.044,194.528C32.044,194.528 31.925,193.732 31.925,193.232C30.668,193.19 30.449,190.739 30.449,188.805L29.671,188.845L29.691,186.91C33.97,186.91 33.979,181.993 33.979,181.088L37.696,181.207C37.696,181.207 37.757,201.507 37.018,201.547C36.279,201.587 30.708,200.071 30.708,200.071L30.708,200.071Z" style="fill:rgb(220,0,103);fill-rule:nonzero;"/>
                        <rect id="rect39501" serif:id="rect3950" x="33.409" y="180.053" width="4.116" height="2.37" style="fill:rgb(220,0,103);"/>
                        <rect id="rect39521" serif:id="rect3952" x="34.247" y="179.096" width="3.219" height="1.054" style="fill:rgb(220,0,103);"/>
                        <rect id="rect39541" serif:id="rect3954" x="34.885" y="177.102" width="2.421" height="4.005" style="fill:rgb(220,0,103);"/>
                    </g>
                </g>
            </g>
        </g>
    </g>
    <g id="Ebene1" transform="matrix(3.01894,0,0,3.01894,-2602.66,-1185.45)">
        <g transform="matrix(0.405288,0,0,0.405288,1150.12,914.588)">
            <circle cx="1384.73" cy="1441.53" r="428.042" style="fill:white;"/>
        </g>
        <g transform="matrix(0.278636,0,0,0.278636,1137.6,1150.97)">
            <circle cx="1384.73" cy="1441.53" r="428.042" style="fill:white;"/>
        </g>
        <g id="path3951" transform="matrix(4.07272,0,0,4.07344,1157.95,-1589.87)">
            <path d="M103.238,758.208C103.27,776.204 117.836,790.775 135.84,790.802C153.845,790.776 168.398,776.204 168.443,758.208C168.398,740.203 153.845,725.641 135.84,725.606C117.836,725.645 103.274,740.203 103.238,758.208M95.721,758.208C95.728,736.049 113.682,718.098 135.84,718.089C157.999,718.095 175.951,736.049 175.951,758.208C175.951,780.358 157.999,798.318 135.84,798.318C113.682,798.318 95.73,780.358 95.721,758.208" style="fill:rgb(220,0,103);fill-rule:nonzero;"/>
        </g>
        <g id="path3953" transform="matrix(4.07272,0,0,4.07344,1157.95,-1589.87)">
            <path d="M108.807,758.208C108.833,773.135 120.905,785.206 135.832,785.233C150.767,785.207 162.839,773.135 162.865,758.208C162.839,743.281 150.767,731.201 135.832,731.166C120.905,731.204 108.833,743.281 108.807,758.208M107.303,758.208C107.303,742.445 120.077,729.671 135.832,729.671C151.595,729.671 164.369,742.445 164.369,758.208C164.369,773.962 151.595,786.736 135.832,786.736C120.077,786.736 107.303,773.962 107.303,758.208" style="fill:rgb(220,0,103);fill-rule:nonzero;"/>
        </g>
        <g id="path3955" transform="matrix(4.07272,0,0,4.07344,1157.95,-1589.87)">
            <path d="M64.338,771.507C64.357,785.526 75.697,796.868 89.717,796.895C103.736,796.869 115.078,785.526 115.105,771.507C115.079,757.479 103.736,746.146 89.717,746.119C75.697,746.145 64.356,757.479 64.338,771.507M62.834,771.507C62.834,756.651 74.87,744.616 89.717,744.616C104.572,744.616 116.608,756.651 116.608,771.507C116.608,786.354 104.572,798.389 89.717,798.389C74.87,798.389 62.834,786.354 62.834,771.507" style="fill:rgb(220,0,103);fill-rule:nonzero;"/>
        </g>
        <g id="path3957" transform="matrix(4.07272,0,0,4.07344,1157.95,-1589.87)">
            <path d="M123.235,765.778L133.27,754.312L143.855,754.312L136.525,762.024L151.345,762.024L151.345,769.514L137.246,769.514L144.336,776.364L133.501,776.364L123.235,765.778Z" style="fill:rgb(255,180,0);fill-rule:nonzero;"/>
        </g>
        <g id="path3959" transform="matrix(4.07272,0,0,4.07344,1157.95,-1569.87)">
            <path d="M84.015,771.934L77.539,771.934L81.773,767.833L73.349,767.833L73.349,763.359L82.2,763.359L77.823,758.742L84.157,758.742L90.153,765.6L84.015,771.934Z" style="fill:rgb(255,180,0);fill-rule:nonzero;"/>
        </g>
    </g>
    <g id="Ebene2" transform="matrix(1.2755,0,0,1.2755,-657.344,-964.013)">
        <path d="M2257.85,2694.86C2257.85,2694.86 2360.95,2569.53 2476.63,2694.57" style="fill:none;stroke:white;stroke-width:81.67px;"/>
        <path d="M2149.03,2588.21C2149.03,2588.21 2354.43,2353.31 2583.61,2587.65" style="fill:none;stroke:white;stroke-width:81.67px;"/>
        <path d="M2044.91,2481.2C2044.91,2481.2 2353.23,2154.17 2689.77,2481.2" style="fill:none;stroke:white;stroke-width:81.67px;"/>
        <g transform="matrix(1.14214,0,0,1.14214,-391.068,-453.416)">
            <circle cx="2414.67" cy="2848.74" r="46.535" style="fill:white;stroke:white;stroke-width:0.69px;"/>
        </g>
    </g>
    <g transform="matrix(1,0,0,1,44.359,0)">
        <g transform="matrix(374.33,0,0,374.33,1670.99,4457.56)">
            <path d="M0.02,-0.147L0.132,-0.168C0.142,-0.114 0.172,-0.087 0.223,-0.087C0.25,-0.087 0.27,-0.092 0.284,-0.103C0.297,-0.113 0.304,-0.126 0.304,-0.143C0.304,-0.155 0.301,-0.163 0.295,-0.17C0.289,-0.176 0.276,-0.182 0.258,-0.187C0.166,-0.212 0.107,-0.235 0.082,-0.257C0.051,-0.285 0.035,-0.323 0.035,-0.371C0.035,-0.42 0.05,-0.458 0.081,-0.487C0.112,-0.516 0.156,-0.531 0.214,-0.531C0.27,-0.531 0.312,-0.52 0.341,-0.498C0.37,-0.477 0.391,-0.442 0.402,-0.394L0.296,-0.37C0.287,-0.411 0.26,-0.432 0.216,-0.432C0.189,-0.432 0.169,-0.428 0.157,-0.42C0.146,-0.412 0.14,-0.402 0.14,-0.389C0.14,-0.378 0.145,-0.368 0.156,-0.361C0.166,-0.353 0.2,-0.341 0.256,-0.325C0.319,-0.307 0.361,-0.286 0.384,-0.261C0.406,-0.236 0.417,-0.202 0.417,-0.161C0.417,-0.111 0.4,-0.069 0.365,-0.037C0.331,-0.004 0.284,0.012 0.223,0.012C0.168,0.012 0.123,-0.001 0.088,-0.029C0.054,-0.056 0.031,-0.095 0.02,-0.147Z" style="fill:rgb(157,157,157);fill-rule:nonzero;"/>
        </g>
        <g transform="matrix(374.33,0,0,374.33,1841.71,4457.56)">
            <path d="M0.306,-0.165L0.418,-0.142C0.403,-0.09 0.38,-0.051 0.348,-0.026C0.316,-0 0.278,0.012 0.233,0.012C0.17,0.012 0.121,-0.009 0.087,-0.051C0.047,-0.1 0.026,-0.168 0.026,-0.256C0.026,-0.343 0.047,-0.413 0.087,-0.465C0.122,-0.509 0.167,-0.531 0.221,-0.531C0.282,-0.531 0.33,-0.508 0.364,-0.463C0.404,-0.412 0.424,-0.336 0.424,-0.235L0.423,-0.22L0.142,-0.22C0.142,-0.179 0.151,-0.147 0.169,-0.124C0.187,-0.102 0.209,-0.09 0.234,-0.09C0.27,-0.09 0.294,-0.115 0.306,-0.165ZM0.312,-0.304C0.311,-0.344 0.302,-0.375 0.286,-0.395C0.27,-0.416 0.25,-0.426 0.228,-0.426C0.204,-0.426 0.184,-0.415 0.168,-0.394C0.151,-0.372 0.143,-0.342 0.144,-0.304L0.312,-0.304Z" style="fill:rgb(157,157,157);fill-rule:nonzero;"/>
        </g>
        <g transform="matrix(374.33,0,0,374.33,2012.42,4457.56)">
            <path d="M0.059,-0.589L0.059,-0.716L0.172,-0.716L0.172,-0.589L0.059,-0.589ZM0.059,-0L0.059,-0.519L0.172,-0.519L0.172,-0L0.059,-0Z" style="fill:rgb(157,157,157);fill-rule:nonzero;"/>
        </g>
        <g transform="matrix(374.33,0,0,374.33,2097.78,4457.56)">
            <path d="M0.253,-0.519L0.253,-0.409L0.177,-0.409L0.177,-0.2C0.177,-0.155 0.178,-0.128 0.18,-0.121C0.185,-0.108 0.194,-0.102 0.208,-0.102C0.218,-0.102 0.233,-0.106 0.253,-0.115L0.263,-0.008C0.237,0.005 0.207,0.012 0.174,0.012C0.146,0.012 0.123,0.005 0.105,-0.008C0.088,-0.022 0.077,-0.042 0.071,-0.067C0.066,-0.086 0.064,-0.125 0.064,-0.183L0.064,-0.409L0.012,-0.409L0.012,-0.519L0.064,-0.519L0.064,-0.622L0.177,-0.702L0.177,-0.519L0.253,-0.519Z" style="fill:rgb(157,157,157);fill-rule:nonzero;"/>
        </g>
        <g transform="matrix(374.33,0,0,374.33,2285.31,4457.56)">
            <path d="M0.415,-0.127L0.415,-0L0.021,-0C0.025,-0.048 0.038,-0.094 0.059,-0.137C0.081,-0.181 0.123,-0.238 0.186,-0.308C0.235,-0.365 0.265,-0.403 0.277,-0.423C0.294,-0.451 0.302,-0.481 0.302,-0.51C0.302,-0.541 0.295,-0.565 0.281,-0.581C0.267,-0.597 0.249,-0.604 0.226,-0.604C0.176,-0.604 0.149,-0.567 0.146,-0.493L0.034,-0.506C0.041,-0.579 0.061,-0.633 0.094,-0.667C0.128,-0.701 0.173,-0.718 0.229,-0.718C0.291,-0.718 0.337,-0.698 0.368,-0.658C0.399,-0.618 0.415,-0.572 0.415,-0.521C0.415,-0.491 0.411,-0.463 0.403,-0.436C0.395,-0.408 0.383,-0.38 0.366,-0.353C0.35,-0.325 0.322,-0.289 0.283,-0.246C0.247,-0.205 0.224,-0.179 0.215,-0.165C0.205,-0.152 0.197,-0.14 0.191,-0.127L0.415,-0.127Z" style="fill:rgb(157,157,157);fill-rule:nonzero;"/>
        </g>
        <g transform="matrix(374.33,0,0,374.33,2456.03,4457.56)">
            <path d="M0.225,-0.718C0.282,-0.718 0.328,-0.691 0.363,-0.637C0.398,-0.583 0.416,-0.488 0.416,-0.353C0.416,-0.218 0.398,-0.123 0.363,-0.069C0.328,-0.015 0.282,0.012 0.226,0.012C0.169,0.012 0.123,-0.015 0.087,-0.068C0.052,-0.122 0.035,-0.217 0.035,-0.354C0.035,-0.489 0.052,-0.583 0.087,-0.637C0.123,-0.691 0.168,-0.718 0.225,-0.718ZM0.225,-0.604C0.203,-0.604 0.185,-0.59 0.172,-0.561C0.159,-0.531 0.152,-0.462 0.152,-0.353C0.152,-0.244 0.159,-0.174 0.172,-0.145C0.185,-0.116 0.203,-0.102 0.225,-0.102C0.248,-0.102 0.266,-0.116 0.279,-0.145C0.292,-0.175 0.298,-0.244 0.298,-0.353C0.298,-0.462 0.292,-0.531 0.279,-0.561C0.266,-0.59 0.248,-0.604 0.225,-0.604Z" style="fill:rgb(157,157,157);fill-rule:nonzero;"/>
        </g>
        <g transform="matrix(374.33,0,0,374.33,2626.74,4457.56)">
            <path d="M0.225,-0.718C0.282,-0.718 0.328,-0.691 0.363,-0.637C0.398,-0.583 0.416,-0.488 0.416,-0.353C0.416,-0.218 0.398,-0.123 0.363,-0.069C0.328,-0.015 0.282,0.012 0.226,0.012C0.169,0.012 0.123,-0.015 0.087,-0.068C0.052,-0.122 0.035,-0.217 0.035,-0.354C0.035,-0.489 0.052,-0.583 0.087,-0.637C0.123,-0.691 0.168,-0.718 0.225,-0.718ZM0.225,-0.604C0.203,-0.604 0.185,-0.59 0.172,-0.561C0.159,-0.531 0.152,-0.462 0.152,-0.353C0.152,-0.244 0.159,-0.174 0.172,-0.145C0.185,-0.116 0.203,-0.102 0.225,-0.102C0.248,-0.102 0.266,-0.116 0.279,-0.145C0.292,-0.175 0.298,-0.244 0.298,-0.353C0.298,-0.462 0.292,-0.531 0.279,-0.561C0.266,-0.59 0.248,-0.604 0.225,-0.604Z" style="fill:rgb(157,157,157);fill-rule:nonzero;"/>
        </g>
        <g transform="matrix(374.33,0,0,374.33,2797.46,4457.56)">
            <path d="M0.416,-0.541L0.307,-0.526C0.302,-0.579 0.281,-0.605 0.243,-0.605C0.218,-0.605 0.198,-0.592 0.182,-0.565C0.166,-0.539 0.156,-0.485 0.151,-0.404C0.165,-0.424 0.181,-0.439 0.198,-0.449C0.216,-0.459 0.235,-0.464 0.256,-0.464C0.302,-0.464 0.342,-0.443 0.376,-0.4C0.41,-0.357 0.427,-0.301 0.427,-0.23C0.427,-0.154 0.409,-0.095 0.373,-0.052C0.337,-0.009 0.292,0.012 0.239,0.012C0.18,0.012 0.131,-0.016 0.093,-0.071C0.054,-0.127 0.035,-0.22 0.035,-0.349C0.035,-0.48 0.055,-0.574 0.095,-0.632C0.135,-0.689 0.186,-0.718 0.249,-0.718C0.293,-0.718 0.329,-0.704 0.359,-0.674C0.389,-0.645 0.408,-0.6 0.416,-0.541ZM0.161,-0.241C0.161,-0.196 0.17,-0.161 0.186,-0.137C0.203,-0.114 0.222,-0.102 0.244,-0.102C0.265,-0.102 0.282,-0.111 0.296,-0.131C0.31,-0.151 0.317,-0.184 0.317,-0.229C0.317,-0.276 0.309,-0.31 0.294,-0.331C0.279,-0.353 0.261,-0.363 0.239,-0.363C0.217,-0.363 0.199,-0.353 0.184,-0.333C0.169,-0.312 0.161,-0.282 0.161,-0.241Z" style="fill:rgb(157,157,157);fill-rule:nonzero;"/>
        </g>
    </g>
    <g transform="matrix(1,0,0,1,-452.49,-527.229)">
        <g transform="matrix(131.992,-519.199,519.199,131.992,1057.95,2588.08)">
            <path d="M0.061,-0L0.061,-0.716L0.463,-0.716L0.463,-0.595L0.179,-0.595L0.179,-0.425L0.425,-0.425L0.425,-0.304L0.179,-0.304L0.179,-0L0.061,-0Z" style="fill-rule:nonzero;"/>
        </g>
        <g transform="matrix(218.957,-488.925,488.925,218.957,1121,2325.03)">
            <path d="M0.06,-0L0.06,-0.716L0.31,-0.716C0.373,-0.716 0.419,-0.709 0.446,-0.697C0.474,-0.684 0.496,-0.661 0.514,-0.63C0.531,-0.598 0.54,-0.56 0.54,-0.516C0.54,-0.46 0.527,-0.415 0.5,-0.38C0.473,-0.346 0.435,-0.325 0.385,-0.316C0.411,-0.298 0.432,-0.278 0.448,-0.256C0.465,-0.234 0.487,-0.196 0.516,-0.14L0.587,-0L0.446,-0L0.36,-0.156C0.329,-0.212 0.308,-0.247 0.297,-0.261C0.286,-0.276 0.275,-0.285 0.262,-0.291C0.25,-0.296 0.23,-0.299 0.203,-0.299L0.178,-0.299L0.178,-0L0.06,-0ZM0.178,-0.413L0.266,-0.413C0.32,-0.413 0.354,-0.415 0.369,-0.42C0.383,-0.425 0.395,-0.434 0.404,-0.449C0.413,-0.463 0.418,-0.482 0.418,-0.506C0.418,-0.529 0.413,-0.547 0.404,-0.561C0.395,-0.575 0.383,-0.584 0.367,-0.589C0.356,-0.593 0.324,-0.595 0.271,-0.595L0.178,-0.595L0.178,-0.413Z" style="fill:rgb(157,157,157);fill-rule:nonzero;"/>
        </g>
        <g transform="matrix(296.964,-445.872,445.872,296.964,1250,2035.41)">
            <path d="M0.06,-0L0.06,-0.716L0.496,-0.716L0.496,-0.595L0.178,-0.595L0.178,-0.436L0.473,-0.436L0.473,-0.315L0.178,-0.315L0.178,-0.121L0.506,-0.121L0.506,-0L0.06,-0Z" style="fill:rgb(157,157,157);fill-rule:nonzero;"/>
        </g>
        <g transform="matrix(345.928,-409.052,409.052,345.928,1416.59,1793.58)">
            <rect x="0.056" y="-0.716" width="0.118" height="0.716" style="fill:rgb(157,157,157);fill-rule:nonzero;"/>
        </g>
        <g transform="matrix(389.644,-367.651,367.651,389.644,1492.38,1697.05)">
            <path d="M0.061,-0L0.061,-0.716L0.463,-0.716L0.463,-0.595L0.179,-0.595L0.179,-0.425L0.425,-0.425L0.425,-0.304L0.179,-0.304L0.179,-0L0.061,-0Z" style="fill-rule:nonzero;"/>
        </g>
        <g transform="matrix(443.18,-300.968,300.968,443.18,1686.39,1510.87)">
            <path d="M0.059,-0.716L0.177,-0.716L0.177,-0.328C0.177,-0.268 0.178,-0.229 0.181,-0.21C0.186,-0.179 0.199,-0.154 0.219,-0.137C0.238,-0.12 0.264,-0.111 0.297,-0.111C0.324,-0.111 0.346,-0.117 0.364,-0.13C0.381,-0.142 0.393,-0.159 0.399,-0.18C0.406,-0.202 0.409,-0.249 0.409,-0.32L0.409,-0.716L0.527,-0.716L0.527,-0.34C0.527,-0.244 0.522,-0.174 0.511,-0.132C0.501,-0.089 0.478,-0.054 0.442,-0.028C0.406,-0.001 0.359,0.012 0.3,0.012C0.239,0.012 0.191,0.001 0.156,-0.021C0.122,-0.043 0.097,-0.074 0.082,-0.114C0.066,-0.153 0.059,-0.227 0.059,-0.334L0.059,-0.716Z" style="fill:rgb(157,157,157);fill-rule:nonzero;"/>
        </g>
        <g transform="matrix(489.758,-217.088,217.088,489.758,1949.2,1332.69)">
            <path d="M0.061,-0L0.061,-0.716L0.176,-0.716L0.417,-0.238L0.417,-0.716L0.527,-0.716L0.527,-0L0.408,-0L0.171,-0.467L0.171,-0L0.061,-0Z" style="fill:rgb(157,157,157);fill-rule:nonzero;"/>
        </g>
        <g transform="matrix(521.96,-120.615,120.615,521.96,2239.74,1202.48)">
            <path d="M0.061,-0L0.061,-0.716L0.179,-0.716L0.179,-0.397L0.419,-0.716L0.579,-0.716L0.358,-0.437L0.591,-0L0.437,-0L0.275,-0.336L0.179,-0.216L0.179,-0L0.061,-0Z" style="fill:rgb(157,157,157);fill-rule:nonzero;"/>
        </g>
        <g transform="matrix(521.099,124.282,-124.282,521.099,3062.73,1128.11)">
            <path d="M0.059,-0.716L0.275,-0.716C0.33,-0.716 0.371,-0.71 0.399,-0.698C0.427,-0.685 0.452,-0.665 0.476,-0.636C0.499,-0.607 0.517,-0.569 0.531,-0.523C0.544,-0.477 0.551,-0.419 0.551,-0.351C0.551,-0.289 0.544,-0.235 0.53,-0.189C0.516,-0.143 0.498,-0.107 0.477,-0.081C0.455,-0.054 0.429,-0.034 0.399,-0.02C0.368,-0.007 0.329,-0 0.282,-0L0.059,-0L0.059,-0.716ZM0.177,-0.595L0.177,-0.121L0.266,-0.121C0.304,-0.121 0.332,-0.125 0.349,-0.132C0.366,-0.139 0.38,-0.15 0.391,-0.164C0.402,-0.179 0.411,-0.202 0.418,-0.233C0.425,-0.264 0.429,-0.305 0.429,-0.356C0.429,-0.409 0.425,-0.451 0.418,-0.482C0.41,-0.512 0.399,-0.536 0.384,-0.554C0.368,-0.571 0.349,-0.583 0.327,-0.588C0.311,-0.593 0.278,-0.595 0.231,-0.595L0.177,-0.595Z" style="fill-rule:nonzero;"/>
        </g>
        <g transform="matrix(489.092,218.584,-218.584,489.092,3372.81,1200.31)">
            <path d="M0.06,-0L0.06,-0.716L0.31,-0.716C0.373,-0.716 0.419,-0.709 0.446,-0.697C0.474,-0.684 0.496,-0.661 0.514,-0.63C0.531,-0.598 0.54,-0.56 0.54,-0.516C0.54,-0.46 0.527,-0.415 0.5,-0.38C0.473,-0.346 0.435,-0.325 0.385,-0.316C0.411,-0.298 0.432,-0.278 0.448,-0.256C0.465,-0.234 0.487,-0.196 0.516,-0.14L0.587,-0L0.446,-0L0.36,-0.156C0.329,-0.212 0.308,-0.247 0.297,-0.261C0.286,-0.276 0.275,-0.285 0.262,-0.291C0.25,-0.296 0.23,-0.299 0.203,-0.299L0.178,-0.299L0.178,-0L0.06,-0ZM0.178,-0.413L0.266,-0.413C0.32,-0.413 0.354,-0.415 0.369,-0.42C0.383,-0.425 0.395,-0.434 0.404,-0.449C0.413,-0.463 0.418,-0.482 0.418,-0.506C0.418,-0.529 0.413,-0.547 0.404,-0.561C0.395,-0.575 0.383,-0.584 0.367,-0.589C0.356,-0.593 0.324,-0.595 0.271,-0.595L0.178,-0.595L0.178,-0.413Z" style="fill:rgb(157,157,157);fill-rule:nonzero;"/>
        </g>
        <g transform="matrix(446.095,296.63,-296.63,446.095,3662.54,1329.09)">
            <path d="M0.06,-0L0.06,-0.716L0.496,-0.716L0.496,-0.595L0.178,-0.595L0.178,-0.436L0.473,-0.436L0.473,-0.315L0.178,-0.315L0.178,-0.121L0.506,-0.121L0.506,-0L0.06,-0Z" style="fill:rgb(157,157,157);fill-rule:nonzero;"/>
        </g>
        <g transform="matrix(393.185,363.862,-363.862,393.185,3906.91,1491.4)">
            <path d="M0.03,-0.233L0.146,-0.247C0.159,-0.156 0.201,-0.11 0.273,-0.11C0.309,-0.11 0.337,-0.119 0.358,-0.138C0.378,-0.157 0.389,-0.18 0.389,-0.207C0.389,-0.224 0.385,-0.238 0.378,-0.249C0.371,-0.26 0.36,-0.27 0.345,-0.277C0.331,-0.284 0.295,-0.297 0.239,-0.314C0.188,-0.329 0.151,-0.346 0.128,-0.364C0.104,-0.381 0.086,-0.405 0.072,-0.434C0.058,-0.463 0.051,-0.494 0.051,-0.528C0.051,-0.567 0.06,-0.602 0.078,-0.633C0.096,-0.665 0.12,-0.688 0.151,-0.704C0.183,-0.72 0.221,-0.728 0.267,-0.728C0.336,-0.728 0.39,-0.709 0.429,-0.672C0.467,-0.634 0.488,-0.581 0.49,-0.511L0.372,-0.505C0.366,-0.543 0.355,-0.57 0.338,-0.585C0.321,-0.601 0.296,-0.608 0.264,-0.608C0.232,-0.608 0.208,-0.602 0.19,-0.588C0.173,-0.575 0.165,-0.559 0.165,-0.539C0.165,-0.519 0.172,-0.503 0.188,-0.49C0.204,-0.476 0.24,-0.462 0.296,-0.446C0.356,-0.428 0.399,-0.41 0.425,-0.391C0.452,-0.372 0.472,-0.348 0.486,-0.318C0.5,-0.287 0.507,-0.251 0.507,-0.208C0.507,-0.146 0.488,-0.094 0.449,-0.051C0.411,-0.009 0.351,0.012 0.27,0.012C0.126,0.012 0.046,-0.07 0.03,-0.233Z" style="fill:rgb(157,157,157);fill-rule:nonzero;"/>
        </g>
        <g transform="matrix(323.454,427.045,-427.045,323.454,4124.16,1690.98)">
            <path d="M0.059,-0.716L0.275,-0.716C0.33,-0.716 0.371,-0.71 0.399,-0.698C0.427,-0.685 0.452,-0.665 0.476,-0.636C0.499,-0.607 0.517,-0.569 0.531,-0.523C0.544,-0.477 0.551,-0.419 0.551,-0.351C0.551,-0.289 0.544,-0.235 0.53,-0.189C0.516,-0.143 0.498,-0.107 0.477,-0.081C0.455,-0.054 0.429,-0.034 0.399,-0.02C0.368,-0.007 0.329,-0 0.282,-0L0.059,-0L0.059,-0.716ZM0.177,-0.595L0.177,-0.121L0.266,-0.121C0.304,-0.121 0.332,-0.125 0.349,-0.132C0.366,-0.139 0.38,-0.15 0.391,-0.164C0.402,-0.179 0.411,-0.202 0.418,-0.233C0.425,-0.264 0.429,-0.305 0.429,-0.356C0.429,-0.409 0.425,-0.451 0.418,-0.482C0.41,-0.512 0.399,-0.536 0.384,-0.554C0.368,-0.571 0.349,-0.583 0.327,-0.588C0.311,-0.593 0.278,-0.595 0.231,-0.595L0.177,-0.595Z" style="fill-rule:nonzero;"/>
        </g>
        <g transform="matrix(245.779,476.007,-476.007,245.779,4315.35,1943.6)">
            <path d="M0.06,-0L0.06,-0.716L0.496,-0.716L0.496,-0.595L0.178,-0.595L0.178,-0.436L0.473,-0.436L0.473,-0.315L0.178,-0.315L0.178,-0.121L0.506,-0.121L0.506,-0L0.06,-0Z" style="fill:rgb(157,157,157);fill-rule:nonzero;"/>
        </g>
        <g transform="matrix(161.613,510.755,-510.755,161.613,4451.69,2204.92)">
            <path d="M0.061,-0L0.061,-0.716L0.176,-0.716L0.417,-0.238L0.417,-0.716L0.527,-0.716L0.527,-0L0.408,-0L0.171,-0.467L0.171,-0L0.061,-0Z" style="fill:rgb(157,157,157);fill-rule:nonzero;"/>
        </g>
    </g>
</svg>
